<svg id="Facebook.svg" xmlns="http://www.w3.org/2000/svg" width="31" height="31" viewBox="0 0 31 31">
  <defs>
    <style>
      .cls-1 {
        fill: #ffad00;
      }

      .cls-2 {
        fill: #fff;
        fill-rule: evenodd;
      }
    </style>
  </defs>
  <circle id="Elipse_2_copiar_9" data-name="Elipse 2 copiar 9" class="cls-1" cx="15.5" cy="15.5" r="15.5"/>
  <path id="Forma_1_copiar_2" data-name="Forma 1 copiar 2" class="cls-2" d="M1346.32,5955.57v-1.46a3.3,3.3,0,0,1,.03-0.51,1.106,1.106,0,0,1,.15-0.36,0.534,0.534,0,0,1,.35-0.24,2.3,2.3,0,0,1,.65-0.07h1.48V5950h-2.37a3.827,3.827,0,0,0-2.94.97,4.017,4.017,0,0,0-.9,2.84v1.76H1341v2.93h1.77v8.51h3.55v-8.51h2.37l0.31-2.93h-2.68ZM194,6013" transform="translate(-1329 -5943)"/>
</svg>
