<svg id="Instagram.svg" xmlns="http://www.w3.org/2000/svg" width="31" height="31" viewBox="0 0 31 31">
  <defs>
    <style>
      .cls-1 {
        fill: #ffad00;
      }

      .cls-2 {
        fill: #fff;
        fill-rule: evenodd;
      }
    </style>
  </defs>
  <circle id="Elipse_2_copiar_11" data-name="Elipse 2 copiar 11" class="cls-1" cx="15.5" cy="15.5" r="15.5"/>
  <path class="cls-2" d="M1469.41,5950h-7.82a4.6,4.6,0,0,0-4.59,4.59v7.82a4.6,4.6,0,0,0,4.59,4.59h7.82a4.6,4.6,0,0,0,4.59-4.59v-7.82A4.6,4.6,0,0,0,1469.41,5950Zm3.22,12.41a3.231,3.231,0,0,1-3.22,3.22h-7.82a3.231,3.231,0,0,1-3.22-3.22v-7.82a3.231,3.231,0,0,1,3.22-3.22h7.82a3.231,3.231,0,0,1,3.22,3.22v7.82Zm-3.33-4.5a3.783,3.783,0,0,0-3.21-3.21,3.507,3.507,0,0,0-1.12,0,3.762,3.762,0,0,0-2.5,1.5,3.81,3.81,0,0,0,3.06,6.08,3.6,3.6,0,0,0,.56-0.04A3.8,3.8,0,0,0,1469.3,5957.91Zm-3.41,2.97a2.441,2.441,0,0,1-.71-4.83c0.11-.01.23-0.02,0.35-0.02s0.24,0.01.36,0.02A2.441,2.441,0,0,1,1465.89,5960.88Zm4.39-7.16a0.657,0.657,0,0,0-.48-0.2,0.7,0.7,0,0,0-.49.2,0.657,0.657,0,0,0-.2.48,0.683,0.683,0,0,0,.69.69,0.657,0.657,0,0,0,.48-0.2,0.7,0.7,0,0,0,.2-0.49A0.657,0.657,0,0,0,1470.28,5953.72Z" transform="translate(-1450 -5943)"/>
</svg>
