<svg id="Youtube.svg" xmlns="http://www.w3.org/2000/svg" width="31" height="31" viewBox="0 0 31 31">
  <defs>
    <style>
      .cls-1 {
        fill: #ffad00;
      }

      .cls-2 {
        fill: #fff;
        fill-rule: evenodd;
      }
    </style>
  </defs>
  <circle id="Elipse_2_copiar_10" data-name="Elipse 2 copiar 10" class="cls-1" cx="15.5" cy="15.5" r="15.5"/>
  <path class="cls-2" d="M1433.38,5954.03c-0.58-.73-1.65-1.03-3.68-1.03h-7.4c-2.08,0-3.16.32-3.74,1.1-0.56.76-.56,1.88-0.56,3.42v2.96c0,3,.67,4.52,4.3,4.52h7.4c1.76,0,2.74-.26,3.37-0.91,0.65-.66.93-1.74,0.93-3.61v-2.96C1434,5955.89,1433.96,5954.76,1433.38,5954.03Zm-5.11,5.38-3.35,1.87a0.533,0.533,0,0,1-.24.06,0.5,0.5,0,0,1-.27-0.08,0.549,0.549,0,0,1-.25-0.47v-3.73a0.549,0.549,0,0,1,.25-0.47,0.5,0.5,0,0,1,.5-0.02l3.36,1.86a0.563,0.563,0,0,1,.28.49A0.575,0.575,0,0,1,1428.27,5959.41Z" transform="translate(-1410 -5943)"/>
</svg>
